<svg xmlns="http://www.w3.org/2000/svg" width="40.1" height="36.5">
    <style>
        .prefix__st1 {
            fill: #545454
        }

        .prefix__st5 {
            fill: #fcfcfc
        }

        .prefix__st7 {
            fill: #555553
        }
    </style>
    <path
        d="M40 23.8v12.5c0 .1 0 .2-.2.2H.1c-.1 0-.2 0-.2-.2V.2C0 0 0 0 .2 0h39.7c.1 0 .2 0 .2.2v23.1c-.1-.3-.2-.5-.4-.7-.8-.6-2.2-.1-2.3.9-.1.5-.1 1-.3 1.5-.9 3.3-2.9 5.5-6.1 6.8-.1.1-.2 0-.2-.1l-.3-.9c-.3-.7-.7-.8-1.2-.2l-2.7 3c-.2.3-.5.5-.7.8-.3.3-.2.7.1.8.1 0 .2.1.3.1 1.2.2 2.4.5 3.5.7l1.5.3c.7.1 1-.2.7-.9l-.3-.9c-.1-.1 0-.2.1-.3.5-.2.9-.4 1.3-.6 3.6-1.9 5.8-4.8 6.6-8.8.2-.2.3-.6.3-1zM25.6.1c-.9 0-1.8.1-2.6.3-2.7.6-5 2-6.8 4.1-1.4 1.7-2.3 3.7-2.6 5.9 0 .2-.1.3-.2.3-2.6.5-4.8 1.7-6.7 3.6C4.1 16.9 3 20 3.4 23.6c.3 2.9 1.5 5.4 3.7 7.4 3 2.8 6.7 3.9 10.7 3.1 3.5-.6 6.1-2.5 8.1-5.4.9-1.4 1.5-3 1.8-4.7 0-.1 0-.2.2-.2 1.3-.2 2.5-.7 3.7-1.3 3.9-2.3 6-5.6 6.2-10.1.1-2-.3-3.8-1.2-5.6-2.4-4.4-6.1-6.5-11-6.7zM.1 13.3c0 .4.1.7.4.9.8.6 2.2.1 2.3-.9 0-.2 0-.4.1-.6C3.5 9 5.7 6.4 9.1 5c.1-.1.2 0 .2.1.1.3.2.6.3 1 .2.6.7.7 1.1.2l.4-.4c1-1.1 2-2.3 3-3.4.4-.5.3-.9-.3-1-.9-.2-1.9-.4-2.8-.5C10.3.9 9.6.7 8.8.6c-.7-.2-1 .1-.8.8.1.3.2.5.3.8.1.2 0 .3-.2.3-3.5 1.4-6 3.8-7.3 7.3-.4 1.2-.6 2.3-.7 3.5z"
        fill="none" />
    <path class="prefix__st1"
        d="M40 23.8c-.1.4-.1.8-.2 1.2-.8 4-3 6.9-6.6 8.8-.4.2-.9.4-1.3.6-.2.1-.2.1-.1.3l.3.9c.2.6-.1 1-.7.9l-1.5-.3c-1.2-.2-2.4-.5-3.5-.7-.1 0-.2 0-.3-.1-.3-.2-.4-.5-.1-.8.2-.3.5-.5.7-.8l2.7-3c.5-.6.9-.5 1.2.2l.3.9c0 .1.1.1.2.1 3.1-1.3 5.2-3.5 6.1-6.8l.3-1.5c.1-1 1.5-1.6 2.3-.9.2.2.3.4.4.7-.2 0-.2.1-.2.3z" />
    <path
        d="M25.6.1c4.9.2 8.6 2.3 11 6.7.9 1.7 1.3 3.6 1.2 5.6-.2 4.5-2.4 7.9-6.2 10.1-1.1.7-2.4 1.1-3.7 1.3-.2 0-.2.1-.2.2-.2 1.7-.8 3.3-1.8 4.7-1.9 2.9-4.6 4.8-8.1 5.4-4.1.7-7.7-.3-10.7-3.1-2.1-2-3.4-4.5-3.7-7.4-.4-3.6.7-6.7 3.1-9.3 1.8-1.9 4-3.1 6.7-3.6.2 0 .2-.1.2-.3.3-2.2 1.2-4.2 2.6-5.9C17.8 2.3 20.1 1 22.8.4c1-.2 1.9-.3 2.8-.3zm.4 22.3c0-1.2-.2-2.3-.6-3.5-1.7-4.7-6.5-7.4-11.5-6.7-2.5.4-4.7 1.6-6.3 3.5-2 2.3-2.8 5-2.4 8 .3 2.4 1.4 4.4 3.2 6 1.9 1.7 4.1 2.6 6.6 2.8 2 .1 4-.3 5.8-1.4 3.3-1.9 5-4.8 5.2-8.7zm10-10.3c0-1.2-.2-2.3-.6-3.4-1.7-4.8-6.7-7.6-11.6-6.7-3.3.6-5.8 2.4-7.5 5.4-.5.9-.8 1.8-1 2.8 0 .1-.1.2.1.2.6 0 1.2 0 1.8.1 3.1.5 5.7 1.9 7.7 4.3.1.1.2.2.3.2.1 0 .2 0 .2-.1v-2c0-.1-.1-.2-.2-.2-.5-.1-1-.3-1.5-.6-.4-.2-.7-.5-.9-.9-.6-1.2-.1-2.7 1.2-3.2.4-.2.7-.3 1.1-.3.2 0 .3-.1.2-.3V7c0-.1 0-.1.1-.1h.5c.5 0 .5 0 .5.5 0 .2.1.3.3.3.7.1 1.4.4 2 .7.1.1.1.1.1.2-.2.3-.4.6-.6 1-.1.2-.1.2-.3.1-.4-.3-.9-.5-1.3-.6-.1 0-.2 0-.2.1v1.9c0 .1 0 .2.2.2.6.1 1.1.4 1.6.6 1.5.9 1.4 3.1-.1 3.9-.5.3-.9.4-1.5.5-.1 0-.2 0-.2.1 0 .3-.1.5.1.8.7 1.4 1.1 3 1.1 4.6 0 .1 0 .2.2.1.4-.1.8-.2 1.2-.4 4.2-1.3 7-5.2 7-9.4zm-8.3 2c0-.3-.1-.6-.4-.8l-.6-.3c-.1 0-.2 0-.2.1v1.6c0 .5 0 .5.4.3.5-.1.8-.5.8-.9zm-2.2-3V9.5c0-.5 0-.5-.5-.4-.4.1-.6.3-.7.8 0 .4.1.7.4.9.3.1.5.2.8.3z"
        fill="#555554" />
    <path class="prefix__st1"
        d="M.1 13.3c.1-1.2.3-2.3.8-3.5 1.4-3.5 3.9-5.9 7.3-7.3.2-.1.2-.1.2-.3-.2-.3-.3-.6-.4-.8-.2-.7.1-1 .8-.9.7.1 1.5.3 2.2.4.9.2 1.9.4 2.8.5.6.1.7.6.3 1-1 1.1-2 2.3-3 3.4-.1.2-.2.3-.3.4-.4.5-.9.4-1.1-.2-.1-.3-.2-.6-.3-1 0-.1-.1-.1-.2-.1-3.5 1.5-5.6 4-6.2 7.7 0 .2 0 .4-.1.6-.2 1-1.5 1.6-2.3.9-.4-.1-.5-.4-.5-.8z" />
    <path
        d="M26 22.4c-.2 3.9-1.9 6.8-5.2 8.8-1.8 1-3.7 1.5-5.8 1.4-2.5-.1-4.7-1.1-6.6-2.8-1.8-1.6-2.9-3.7-3.2-6-.4-3 .4-5.7 2.4-8 1.7-1.9 3.8-3.1 6.3-3.5 4.9-.8 9.7 2 11.5 6.7.4 1 .6 2.2.6 3.4zm-8-.2c.5-.2.8-.5 1-.9.2-.6.1-1.2-.2-1.8-.3-.5-.8-.7-1.4-.8-.3-.1-.3-.1-.3-.4 0-.2.1-.5 0-.6-.1-.1-.4 0-.6 0-.2 0-.2.1-.2.2v.6c0 .1 0 .2-.1.2h-.6c-.1 0-.1 0-.1-.1V18c0-.1 0-.2-.2-.2h-.5c-.1 0-.2 0-.2.2v.6c0 .2-.1.2-.2.2h-2.1c-.1 0-.2 0-.2.2v1.1c0 .1 0 .2.2.2h.7c.4 0 .6.2.6.6v3.6c0 .4-.2.5-.5.5h-.7c-.1 0-.2 0-.2.2v1c0 .2 0 .3.2.3h2c.1 0 .2 0 .2.2v.6c0 .1 0 .2.2.2h.5c.1 0 .2-.1.2-.2v-.6c0-.1 0-.2.1-.1h.5c.3 0 .3 0 .3.3 0 .2-.1.5 0 .6.1.1.4 0 .6 0 .1 0 .2 0 .2-.2v-.6c0-.1 0-.2.2-.2.3 0 .7-.1 1-.2.7-.3 1.1-.8 1.3-1.5.1-.7 0-1.3-.6-1.8-.5-.6-.7-.7-1.1-.8zM15.4 31c.5 0 .7-.2.7-.5s-.2-.6-.6-.6c-.5 0-1-.1-1.4-.2-3-.7-5-2.5-5.9-5.5-.2-.6-.2-1.2-.3-1.9 0-.3-.3-.5-.6-.5s-.4.2-.4.5c0 .4.1.8.1 1.3.6 4.2 4.1 7.2 8.4 7.4zm.2-17.2c-.3 0-.5.1-.6.4-.1.4.1.7.6.7s.9.1 1.4.2c3.6.8 6.1 3.6 6.2 7.3 0 .4.2.6.6.6.3 0 .5-.3.5-.6 0-.2 0-.5-.1-.7-.2-2-1-3.7-2.4-5.1-1.7-1.9-3.8-2.7-6.2-2.8z"
        fill="#fdd516" />
    <path
        d="M36 12.1c0 4.2-2.8 8.1-6.8 9.6-.4.1-.8.3-1.2.4-.1 0-.2 0-.2-.1-.1-1.6-.5-3.1-1.1-4.6-.1-.3 0-.5-.1-.8 0-.1.1-.1.2-.1.5-.1 1-.2 1.5-.5 1.5-.8 1.5-3.1.1-3.9-.5-.3-1.1-.5-1.6-.6-.1 0-.2-.1-.2-.2V9.4c0-.2.1-.2.2-.1.5.1.9.3 1.3.6.2.1.2.1.3-.1.2-.3.4-.6.6-1 .1-.1.1-.2-.1-.2-.6-.4-1.3-.6-2-.7-.2 0-.3-.1-.3-.3 0-.5 0-.5-.5-.5h-.5c-.1 0-.1 0-.1.1v.4c0 .2 0 .3-.2.3-.4 0-.8.1-1.1.3-1.3.6-1.8 2-1.2 3.2.2.4.6.7.9.9.5.3 1 .4 1.5.6.1 0 .2.1.2.2v2c0 .1 0 .2-.2.1-.1 0-.2-.1-.3-.2-2-2.4-4.6-3.8-7.7-4.3-.6-.1-1.2-.1-1.8-.1-.2 0-.1-.2-.1-.2.2-1 .5-2 1-2.8 1.6-3 4.1-4.8 7.5-5.4 5-.9 9.9 2 11.6 6.7.2.8.4 2 .4 3.2zM25.8 3.5h-.2c-.4-.1-.6.1-.6.5 0 .3.2.5.6.5 1.2 0 2.4.3 3.5.9 2.3 1.2 3.6 3.1 4.1 5.6.1.4.1.7.1 1.1 0 .3.3.5.6.5s.5-.2.5-.5v-.6c-.2-2.1-1-3.9-2.5-5.4-1.7-1.7-3.8-2.5-6.1-2.6z"
        fill="#fdfdfd" />
    <path class="prefix__st5"
        d="M27.7 14.1c0 .4-.3.8-.8.9-.4.1-.4.1-.4-.3v-1.6c0-.1 0-.2.2-.1l.6.3c.2.2.4.4.4.8zM25.5 11.1c-.3-.1-.5-.2-.7-.3-.3-.2-.5-.5-.4-.9 0-.4.3-.6.7-.8.5-.2.5-.2.5.4-.1.5-.1 1-.1 1.6z" />
    <path
        d="M18 22.2c.3.1.6.2.9.4.6.5.8 1.1.6 1.8-.1.7-.6 1.2-1.3 1.5-.3.1-.7.2-1 .2-.1 0-.2.1-.2.2v.6c0 .1 0 .2-.2.2s-.5.1-.6 0c-.1-.1 0-.4 0-.6 0-.3 0-.3-.3-.3h-.5c-.1 0-.1 0-.1.1v.6c0 .1 0 .2-.2.2h-.5c-.1 0-.2 0-.2-.2v-.6c0-.2 0-.2-.2-.2h-2c-.2 0-.2-.1-.2-.3v-1c0-.1 0-.2.2-.2h.7c.4 0 .5-.2.5-.5v-3.6c0-.4-.2-.5-.6-.6h-.7c-.1.1-.1.1-.1 0v-1.1c0-.1.1-.2.2-.2h2.1c.2 0 .2 0 .2-.2v-.6c0-.1 0-.2.2-.2h.5c.1 0 .2 0 .2.2v.6c0 .1 0 .2.1.1h.6c.1 0 .1 0 .1-.2v-.6c0-.2 0-.2.2-.2s.5-.1.6 0c.1.1 0 .4 0 .6 0 .3 0 .3.3.4.5.1 1.1.3 1.4.8.4.6.4 1.2.2 1.8-.1.6-.4.9-.9 1.1zm-2.9 1.6v.7c0 .1 0 .2.2.2h1.2c.3 0 .6 0 .8-.1.2-.1.4-.3.4-.5.1-.5-.1-.9-.6-1-.6-.1-1.3-.1-1.9-.1-.1 0-.1.1-.1.1v.7zm0-3v.7c0 .1 0 .1.1.1.5 0 1 0 1.6-.1.4-.1.6-.3.6-.7 0-.4-.1-.7-.6-.8-.5-.1-1-.1-1.6-.1-.1 0-.1.1-.1.1v.8z"
        fill="#555453" />
    <path class="prefix__st7"
        d="M15.4 31c-4.3-.2-7.8-3.1-8.5-7.3-.1-.4-.1-.8-.1-1.3 0-.3.2-.5.4-.5.4 0 .6.1.6.5.1.6.1 1.3.3 1.9C9 27.2 11 29 14 29.7c.5.1 1 .2 1.4.2.4 0 .6.2.6.6.1.3-.2.5-.6.5zM15.6 13.8c2.4.1 4.5 1 6.2 2.7 1.4 1.4 2.2 3.1 2.4 5.1 0 .2 0 .5.1.7 0 .4-.2.6-.5.6-.4 0-.6-.2-.6-.6-.2-3.7-2.6-6.6-6.2-7.3-.5-.1-.9-.1-1.4-.2-.5 0-.7-.3-.6-.7.1-.2.3-.3.6-.3z" />
    <path
        d="M25.8 3.5c2.3.1 4.4 1 6 2.6 1.5 1.5 2.3 3.3 2.5 5.4v.6c0 .3-.2.5-.5.5s-.6-.2-.6-.5c0-.4 0-.7-.1-1.1-.4-2.5-1.8-4.4-4.1-5.6-1.1-.6-2.3-.8-3.5-.9-.3 0-.5-.2-.5-.5 0-.4.2-.6.6-.6.1 0 .2 0 .2.1z"
        fill="#555" />
    <path
        d="M15.1 23.8v-.7c0-.1 0-.1.1-.1.6 0 1.3-.1 1.9.1.5.1.7.5.6 1-.1.3-.2.4-.4.5-.3.1-.6.1-.8.1h-1.2c-.1 0-.2 0-.2-.2v-.7z"
        fill="#fbd317" />
    <path
        d="M15.1 20.8v-.7c0-.1 0-.1.1-.1.5 0 1.1-.1 1.6.1.4.1.6.3.6.8 0 .4-.2.6-.6.7-.5.1-1 .1-1.6.1-.1 0-.1-.1-.1-.1v-.8z"
        fill="#fcd417" />
</svg>