<svg xmlns="http://www.w3.org/2000/svg" viewBox="0 0 72 39.5">
    <defs>
        <linearGradient id="prefix__linear-gradient" x1="36.87" y1="13.54" x2="88.2" y2="-6.36"
            gradientUnits="userSpaceOnUse">
            <stop offset=".12" stop-color="#38a169" />
            <stop offset=".33" stop-color="#2f8358" />
            <stop offset=".6" stop-color="#266144" />
            <stop offset=".75" stop-color="#22543d" />
        </linearGradient>
        <style>
            .prefix__cls-3 {
                fill: #545454
            }

            .prefix__cls-7 {
                fill: #fcfcfc
            }

            .prefix__cls-9 {
                fill: #555553
            }
        </style>
    </defs>
    <g id="prefix__Layer_2" data-name="Layer 2">
        <g id="prefix__Layer_1-2" data-name="Layer 1">
            <path fill="url(#prefix__linear-gradient)" d="M72 0H0v39.5h41.69L72 0z" />
            <path
                d="M43.55 25.3v12.51c0 .14 0 .17-.17.17H3.67c-.14 0-.17 0-.17-.17V1.69c0-.14 0-.17.17-.17h39.71c.14 0 .17 0 .17.17v23.14a1.33 1.33 0 00-.41-.67 1.5 1.5 0 00-2.33.93 13.25 13.25 0 01-.26 1.51 9.87 9.87 0 01-6.06 6.8c-.13.05-.17 0-.21-.1-.09-.29-.19-.58-.3-.86-.25-.72-.68-.81-1.2-.24l-2.67 3c-.24.27-.48.52-.7.8a.51.51 0 00.13.83.62.62 0 00.26.09l3.53.68 1.51.29c.66.12 1-.23.75-.85-.1-.29-.19-.58-.31-.87-.05-.14 0-.2.11-.26a9.5 9.5 0 001.34-.61 12.42 12.42 0 006.61-8.8c.08-.41.14-.81.21-1.2zM29.06 1.58A12.47 12.47 0 0019.58 6a11.57 11.57 0 00-2.64 5.87c0 .16-.06.25-.25.29A11.91 11.91 0 0010 15.79a11.5 11.5 0 00-3.17 9.32 11.33 11.33 0 003.69 7.38 12 12 0 0010.78 3.13 11.87 11.87 0 008.08-5.38 11.27 11.27 0 001.75-4.71c0-.12 0-.21.19-.23A11.39 11.39 0 0035 24a11.75 11.75 0 006.25-10.11A10.66 10.66 0 0040 8.31a12.17 12.17 0 00-10.94-6.73zM3.59 14.81a1.12 1.12 0 00.41.92 1.5 1.5 0 002.33-.94c0-.19 0-.38.07-.57a9.8 9.8 0 016.24-7.74c.13-.05.17 0 .21.1.11.33.22.65.34 1 .21.58.66.67 1.09.21.12-.12.23-.25.34-.38l3-3.39c.41-.46.27-.9-.34-1l-2.82-.55L12.31 2c-.68-.13-1 .23-.76.88a7.64 7.64 0 00.29.8c.08.19 0 .25-.16.32a12.59 12.59 0 00-7.31 7.35 13 13 0 00-.78 3.46z"
                fill="none" />
            <path class="prefix__cls-3"
                d="M43.55 25.3c-.07.39-.13.79-.21 1.19a12.42 12.42 0 01-6.61 8.8 9.5 9.5 0 01-1.34.61c-.15.06-.16.12-.11.26.12.29.21.58.31.87.21.62-.09 1-.75.85l-1.51-.29-3.53-.68a.62.62 0 01-.26-.09.51.51 0 01-.13-.83c.22-.28.46-.53.7-.8l2.67-3c.52-.57.95-.48 1.2.24.11.28.21.57.3.86 0 .12.08.15.21.1a9.87 9.87 0 006.06-6.8 13.25 13.25 0 00.26-1.51 1.5 1.5 0 012.33-.93 1.33 1.33 0 01.41.67z" />
            <path
                d="M29.06 1.58A12.17 12.17 0 0140 8.31a10.66 10.66 0 011.24 5.56A11.75 11.75 0 0135 24a11.39 11.39 0 01-3.69 1.32c-.15 0-.17.11-.19.23a11.27 11.27 0 01-1.75 4.71 11.87 11.87 0 01-8.08 5.38 12 12 0 01-10.74-3.13 11.33 11.33 0 01-3.69-7.38A11.5 11.5 0 0110 15.79a11.91 11.91 0 016.65-3.64c.19 0 .23-.13.25-.29A11.57 11.57 0 0119.58 6a12.47 12.47 0 019.48-4.41zm.42 22.32a10.08 10.08 0 00-.62-3.45 10.47 10.47 0 00-11.47-6.66 10.26 10.26 0 00-6.34 3.51 10.06 10.06 0 00.82 14 10.35 10.35 0 006.6 2.77 10 10 0 005.77-1.36 10.09 10.09 0 005.24-8.81zm10-10.33a9.69 9.69 0 00-.6-3.41 10.44 10.44 0 00-11.6-6.66 10.22 10.22 0 00-7.48 5.36 9.52 9.52 0 00-1 2.84c0 .07-.14.24.11.23a9.22 9.22 0 011.82.1 12.23 12.23 0 017.75 4.28.7.7 0 00.34.2c.13 0 .17 0 .17-.14v-2c0-.14 0-.18-.17-.21a6.09 6.09 0 01-1.49-.56 2.23 2.23 0 01-.94-.91 2.34 2.34 0 011.16-3.23 3 3 0 011.13-.3c.2 0 .27-.09.25-.29s0-.24 0-.36 0-.13.12-.13h.47c.53 0 .54 0 .52.54 0 .2.07.25.26.28a5.29 5.29 0 012 .74c.11.07.11.12 0 .23-.19.31-.38.63-.56 1-.08.15-.14.18-.3.08a5.52 5.52 0 00-1.34-.59c-.14 0-.21-.05-.21.15v1.85c0 .15.05.2.18.23a6.79 6.79 0 011.61.65 2.3 2.3 0 01-.06 4 3.85 3.85 0 01-1.45.46c-.07 0-.2 0-.2.1a1.87 1.87 0 00.06.78 11.79 11.79 0 011.14 4.55c0 .14 0 .17.17.14a12.49 12.49 0 001.23-.37 10.23 10.23 0 006.9-9.63zm-8.3 2a.93.93 0 00-.42-.82 3 3 0 00-.63-.3c-.12-.05-.16 0-.16.1v1.58c0 .53 0 .45.44.33a.91.91 0 00.76-.84zm-2.18-3v-1.63c0-.53 0-.53-.52-.36a.85.85 0 00-.65.75.92.92 0 00.43.93 3.5 3.5 0 00.74.31z"
                fill="#555554" />
            <path class="prefix__cls-3"
                d="M3.59 14.81a13 13 0 01.78-3.46A12.59 12.59 0 0111.68 4c.18-.07.24-.13.16-.32a7.64 7.64 0 01-.29-.8c-.23-.65.08-1 .76-.88l2.18.42 2.82.58c.61.12.75.56.34 1l-3 3.39c-.11.13-.22.26-.34.38-.43.46-.88.37-1.09-.21-.12-.32-.23-.64-.34-1 0-.12-.08-.15-.21-.1a9.8 9.8 0 00-6.27 7.76c0 .19-.05.38-.07.57a1.5 1.5 0 01-2.33.94 1.12 1.12 0 01-.41-.92z" />
            <path
                d="M29.48 23.9a10.09 10.09 0 01-5.24 8.82 10 10 0 01-5.77 1.36 10.35 10.35 0 01-6.6-2.77 10.06 10.06 0 01-.82-14 10.26 10.26 0 016.34-3.51 10.47 10.47 0 0111.47 6.66 10.08 10.08 0 01.62 3.44zm-8-.17a1.64 1.64 0 001-.95 1.92 1.92 0 00-.22-1.78 2 2 0 00-1.38-.8c-.32-.07-.31-.07-.32-.39s.09-.49 0-.62-.42 0-.64-.05-.2.06-.19.21 0 .4 0 .6 0 .15-.14.15h-.62c-.2 0-.15 0-.15-.15v-.64c0-.21-.05-.17-.18-.17h-.53c-.12 0-.16.05-.15.17s0 .4 0 .59-.05.2-.2.2h-2.11c-.14 0-.19 0-.19.18v1.11c0 .13 0 .17.17.17h.68a.51.51 0 01.56.56v3.56a.49.49 0 01-.54.55h-.7c-.13 0-.17.05-.17.17v1c0 .31 0 .25.24.25h2.05c.15 0 .2 0 .19.19s0 .41 0 .62 0 .17.17.17a2.9 2.9 0 01.51 0c.15 0 .18-.05.18-.19v-.64c0-.21 0-.15.15-.15h.47c.32 0 .28 0 .29.3s-.1.51.05.64.42 0 .64 0 .18 0 .18-.16v-.64c0-.21 0-.17.17-.18a3.63 3.63 0 001-.21A1.88 1.88 0 0023 25.94a1.76 1.76 0 00-.61-1.8 2.39 2.39 0 00-.88-.41zm-2.64 8.74h.07c.4 0 .61-.16.62-.5a.55.55 0 00-.53-.57 6.9 6.9 0 01-1.43-.17 7.6 7.6 0 01-5.92-5.52 9.09 9.09 0 01-.28-1.87c0-.34-.27-.5-.64-.47a.49.49 0 00-.44.55 9 9 0 00.13 1.27 8.84 8.84 0 008.45 7.28zm.26-17.19c-.34 0-.52.1-.6.35a.55.55 0 00.58.73 7.33 7.33 0 011.4.16 7.66 7.66 0 016.21 7.33.54.54 0 00.59.55.51.51 0 00.51-.61c0-.24 0-.48-.07-.72A8.49 8.49 0 0025.35 18a9 9 0 00-6.22-2.72z"
                fill="#fdd516" />
            <path
                d="M39.47 13.57a10.23 10.23 0 01-6.83 9.55 12.49 12.49 0 01-1.23.37c-.14 0-.16 0-.17-.14a11.79 11.79 0 00-1.14-4.55 1.87 1.87 0 01-.1-.8c0-.13.13-.09.2-.1a3.85 3.85 0 001.45-.46 2.3 2.3 0 00.06-4 6.79 6.79 0 00-1.61-.65c-.13 0-.18-.08-.18-.23v-1.85c0-.2.07-.19.21-.15a5.52 5.52 0 011.34.59c.16.1.22.07.3-.08.18-.33.37-.65.56-1 .06-.11.06-.16 0-.23a5.29 5.29 0 00-2-.74c-.19 0-.26-.08-.26-.28 0-.54 0-.54-.52-.54H29c-.09 0-.12 0-.12.13v.36c0 .12-.05.27-.25.29a3 3 0 00-1.13.3 2.34 2.34 0 00-1.16 3.23 2.23 2.23 0 00.94.91 6.09 6.09 0 001.49.56c.12 0 .18.07.17.21v2c0 .14 0 .17-.17.14a.7.7 0 01-.34-.2 12.23 12.23 0 00-7.7-4.21 9.22 9.22 0 00-1.82-.1c-.25 0-.12-.16-.11-.23a9.52 9.52 0 011-2.84 10.22 10.22 0 017.48-5.33 10.44 10.44 0 0111.59 6.66 9.69 9.69 0 01.6 3.41zM29.32 5h-.17c-.44 0-.66.18-.64.57a.54.54 0 00.58.5 7.81 7.81 0 013.48.89 7.5 7.5 0 014.07 5.61c.06.36.06.72.1 1.08a.53.53 0 00.6.46.47.47 0 00.48-.51 5.44 5.44 0 000-.57 8.53 8.53 0 00-2.47-5.37A8.92 8.92 0 0029.32 5z"
                fill="#fdfdfd" />
            <path class="prefix__cls-7"
                d="M31.17 15.62a.91.91 0 01-.77.89c-.44.12-.44.12-.44-.33V14.6c0-.14 0-.15.16-.1a3 3 0 01.63.3.93.93 0 01.42.82zM29 12.57a3.5 3.5 0 01-.74-.31.92.92 0 01-.43-.93.85.85 0 01.65-.75c.51-.17.52-.17.52.36z" />
            <path
                d="M21.51 23.73a2.39 2.39 0 01.88.41 1.76 1.76 0 01.61 1.8 1.88 1.88 0 01-1.25 1.49 3.63 3.63 0 01-1 .21c-.14 0-.17.05-.17.18v.64c0 .22-.05.17-.18.16s-.5.09-.64 0 0-.42-.05-.64 0-.29-.29-.3h-.47c-.15 0-.15 0-.15.15v.64c0 .21 0 .2-.18.19a2.9 2.9 0 00-.51 0c-.13 0-.18 0-.17-.17s0-.41 0-.62 0-.19-.19-.19H15.7c-.2 0-.25-.06-.24-.25s0-.68 0-1c0-.12 0-.17.17-.17h.7a.49.49 0 00.54-.55V22.1a.51.51 0 00-.56-.56h-.68c-.13 0-.17 0-.17-.17v-1.11c0-.15 0-.18.19-.18h2.09c.15 0 .22 0 .2-.2s0-.39 0-.59 0-.17.15-.17h.53c.13 0 .18 0 .18.17v.64c0 .21 0 .15.15.15h.62c.21 0 .14 0 .14-.15v-.6c0-.2 0-.23.19-.21s.5-.09.64.05 0 .41 0 .62 0 .32.32.39a2 2 0 011.38.8 1.92 1.92 0 01.24 1.78 1.64 1.64 0 01-.97.97zm-2.9 1.63v.68c0 .22 0 .19.18.19H20a2.63 2.63 0 00.83-.14.64.64 0 00.44-.5.75.75 0 00-.62-1 10 10 0 00-1.89-.09c-.11 0-.11.07-.11.14zm0-3V23c0 .07 0 .14.11.14a7.36 7.36 0 001.55-.08.64.64 0 00.56-.69.67.67 0 00-.55-.77 7.58 7.58 0 00-1.58-.08c-.09 0-.09.07-.09.13z"
                fill="#555453" />
            <path class="prefix__cls-9"
                d="M18.87 32.47a8.84 8.84 0 01-8.5-7.28 9 9 0 01-.13-1.27.49.49 0 01.44-.55c.37 0 .61.13.64.47a9.09 9.09 0 00.28 1.87 7.6 7.6 0 005.92 5.52 6.9 6.9 0 001.48.17.55.55 0 01.61.57c0 .34-.22.51-.62.5zM19.13 15.28A9 9 0 0125.35 18a8.49 8.49 0 012.4 5.08c0 .24.05.48.07.72a.51.51 0 01-.51.61.54.54 0 01-.59-.55 7.66 7.66 0 00-6.21-7.33 7.33 7.33 0 00-1.4-.16.55.55 0 01-.58-.73c.08-.26.26-.37.6-.36z" />
            <path
                d="M29.32 5a8.92 8.92 0 016 2.65A8.53 8.53 0 0137.79 13a5.44 5.44 0 010 .57.47.47 0 01-.48.51.53.53 0 01-.6-.46c0-.36 0-.72-.1-1.08a7.5 7.5 0 00-4.07-5.61A7.81 7.81 0 0029.09 6a.54.54 0 01-.58-.5c0-.39.2-.59.64-.57z"
                fill="#555" />
            <path
                d="M18.61 25.36v-.73c0-.07 0-.14.11-.14a10 10 0 011.89.09.75.75 0 01.62 1 .64.64 0 01-.44.5 2.63 2.63 0 01-.83.14h-1.17c-.15 0-.19-.05-.18-.19s0-.44 0-.67z"
                fill="#fbd317" />
            <path
                d="M18.61 22.33v-.66c0-.06 0-.13.09-.13a7.58 7.58 0 011.58.08.67.67 0 01.55.77.64.64 0 01-.56.69 7.36 7.36 0 01-1.55.08c-.11 0-.11-.07-.11-.14z"
                fill="#fcd417" />
        </g>
    </g>
</svg>